<svg xmlns="http://www.w3.org/2000/svg" viewBox="0 0 858 300">
  <g fill="#DBB15D">
    <path class="cls-1" d="m121.75,118.62c-7.4-12.4-17.85-19.46-16.46-35.52.47-7.49,3.35-14.69,7.48-20.9.22-.65,3.6-3.92,4.12-4.48,2.75-2.89,5.69-5.97,7.79-9.38,2.49-3.98,3.46-8.84,3.04-13.5-.29-2.8-1.37-5.56-2.76-7.99-2.6-4.48-6.32-8.51-9.36-12.69-3.2-4.33-5.89-9.26-7.01-14.57-2.91,12.55,5.83,23.73,8.28,35.56,1.85,12.39-6.31,17.09-14.08,24.53-2.26,2.26-4.55,4.71-6.04,7.56-3.35,6.41-3.37,14.08-1.88,21.02,1.22,5.78,3.17,9.53,7.42,13.68,6.05,5.98,14.42,9.66,19.46,16.68Z"/>
    <path class="cls-1" d="m109.58,138.05c9.1-10.93,22.35-18.43,29.29-31.14,3.83-7.31,4.46-16.06,2.98-24.08-1.52-7.91-5.33-15.27-10.08-21.71,11.92,13.43,31.43,35.43,15.66,52.77-4.34,4.36-10.24,7.15-15.59,10.06-7.72,4.04-15.45,8.63-22.25,14.1Z"/>
    <path class="cls-1" d="m186.83,146.05c-21.16-.88-42.38-.31-63.54-1.38-48.69-2.45-91.8-18.59-123.29-20.49,29.96,12.67,46.27,43.55,51.63,74.32,3.85,22.11,5.7,49.7,15.88,70.53,8.75,17.9,23.66,30.81,51.3,30.96,10.14.06,20.79-2.88,31.4-9.56-6.67,1.05-12.93,1.33-18.76.89-65.91-5.03-49.4-73.93-62.82-111.69-3.3-9.28-9.02-20.5-19.49-30.06,0,0,21.72,4.35,49.87,4.35,9.36,0,26.16.24,34.14,2.32,18.11,4.41,18.72,22.05,26.05,35.78,14.29,27.44,56.02,14.3,55.63-15.45.18-15.21-12.54-29.88-27.98-30.53Zm11.38,44.24c-3.64,3.65-8.58,5.69-13.73,5.69-5.15,0-10.09-2.04-13.73-5.69-3.65-3.64-5.69-8.58-5.69-13.73,0-5.15,2.04-10.09,5.69-13.73,3.64-3.65,8.58-5.69,13.73-5.69,5.15,0,10.09,2.04,13.73,5.69,3.65,3.64,5.69,8.58,5.69,13.73,0,5.15-2.04,10.09-5.69,13.73Z"/>
    <path class="cls-1" d="m303.22,274.76c-.09,1.33-.05,2.67.14,4,.18,1.33.49,2.65.91,3.92.42,1.26.97,2.47,1.65,3.61.66,1.12,1.5,2.13,2.49,2.98,1.83,1.84,4.34,2.84,6.94,2.77,2.61-.16,5.12-1.08,7.22-2.63v4c-1.13.89-2.41,1.57-3.78,2-1.52.5-3.1.81-4.7.95-1.62.14-3.25.13-4.87-.04-1.46-.13-2.91-.43-4.31-.88-2.74-.89-5.18-2.53-7.04-4.73-1.72-2.07-2.98-4.48-3.68-7.08-.7-2.6-.87-5.32-.49-7.99.34-2.65,1.21-5.2,2.56-7.5,1.34-2.27,3.2-4.2,5.43-5.61,2.46-1.52,5.31-2.31,8.2-2.28.76,0,1.52.06,2.28.18l2.17.42,1.86.49,1.33.46c.22.1.46.16.7.18.07,0,.13,0,.19-.03.05-.02.08-.07.09-.12l.21-.88h1.61l2.38,8.76h-3.92c-.43-1.99-1.63-3.74-3.33-4.87-1.49-.98-3.3-1.33-5.05-.98-1.92.46-3.61,1.59-4.77,3.19-.76.97-1.32,2.08-1.67,3.26-.43,1.45-.68,2.94-.74,4.45h0Z"/>
    <path class="cls-1" d="m365.97,277.21c.13-3.36-.74-6.69-2.49-9.57-1.52-2.42-3.66-4.39-6.2-5.71-2.5-1.27-5.26-1.92-8.06-1.89-2.8-.02-5.56.63-8.06,1.89-2.54,1.32-4.68,3.29-6.2,5.71-1.75,2.88-2.61,6.2-2.49,9.57v1.89c-.13,3.36.74,6.69,2.49,9.57,1.53,2.43,3.67,4.41,6.2,5.75,2.49,1.29,5.26,1.95,8.06,1.93,2.8.02,5.57-.64,8.06-1.93,2.54-1.34,4.67-3.32,6.2-5.75,1.75-2.88,2.61-6.2,2.49-9.57v-1.89Zm-10.48,8.94c-.52,1.78-1.46,3.42-2.73,4.77-.94.98-2.22,1.56-3.57,1.61-1.36,0-2.65-.58-3.57-1.58-1.27-1.37-2.22-3.01-2.77-4.8-.82-2.59-1.2-5.31-1.12-8.03-.07-2.7.31-5.38,1.12-7.96.55-1.79,1.49-3.43,2.77-4.8.92-1,2.21-1.58,3.57-1.61,1.36.03,2.65.61,3.57,1.61,1.27,1.37,2.21,3.01,2.73,4.8.79,2.58,1.16,5.26,1.09,7.96.07,2.72-.29,5.43-1.09,8.03Z"/>
    <path class="cls-1" d="m397.26,260.95l1.19,4.49.63,2.31h-1.47c-.24-.66-.66-1.23-1.23-1.65-.6-.45-1.32-.68-2.07-.67h-6.31v10.65h4.49c1.17-.05,2.26-.58,3.01-1.47h1.4l-1.12,4.14-1.12,4.21h-.77c-.2-.61-.57-1.15-1.05-1.58-.48-.4-1.06-.66-1.68-.74h-3.15v11.21c0,.73.23,1.45.67,2.03.41.58.98,1.02,1.65,1.26v.84h-13.46v-.84c.67-.24,1.24-.68,1.65-1.26.44-.59.67-1.3.67-2.03v-26.77c0-.73-.23-1.45-.67-2.03-.41-.58-.98-1.02-1.65-1.26v-.84h20.4Z"/>
    <path class="cls-1" d="m430.85,260.95l1.19,4.49.63,2.31h-1.47c-.24-.66-.66-1.23-1.23-1.65-.6-.45-1.32-.68-2.07-.67h-6.31v10.65h4.49c1.17-.05,2.26-.58,3.01-1.47h1.4l-1.12,4.14-1.12,4.21h-.77c-.2-.61-.57-1.15-1.05-1.58-.48-.4-1.06-.66-1.68-.74h-3.15v11.21c0,.73.23,1.45.67,2.03.41.58.98,1.02,1.65,1.26v.84h-13.46v-.84c.67-.24,1.24-.68,1.65-1.26.44-.59.67-1.3.67-2.03v-26.77c0-.73-.23-1.45-.67-2.03-.41-.58-.98-1.02-1.65-1.26v-.84h20.4Z"/>
    <path class="cls-1" d="m461.85,291.51c.73,0,1.45-.23,2.03-.67.58-.41,1.02-.98,1.26-1.65h1.47l-1.82,6.8h-20.75v-.84c.67-.24,1.24-.68,1.65-1.26.44-.61.68-1.35.67-2.1v-26.63c.01-.75-.22-1.49-.67-2.1-.41-.58-.98-1.02-1.65-1.26v-.84h20.4l1.19,4.49.7,2.31h-1.54c-.24-.66-.66-1.23-1.23-1.65-.6-.45-1.32-.68-2.07-.67h-6.31v10.65h4.49c1.18,0,2.29-.55,3.01-1.47h1.47l-2.31,8.27h-.77c-.21-.62-.58-1.16-1.09-1.58-.49-.4-1.09-.65-1.72-.74h-3.08v10.93h6.66Z"/>
    <path class="cls-1" d="m495.73,291.51c.73,0,1.45-.23,2.03-.67.58-.41,1.02-.98,1.26-1.65h1.47l-1.82,6.8h-20.75v-.84c.67-.24,1.24-.68,1.65-1.26.44-.61.68-1.35.67-2.1v-26.63c.01-.75-.22-1.49-.67-2.1-.41-.58-.98-1.02-1.65-1.26v-.84h20.4l1.19,4.49.7,2.31h-1.54c-.24-.66-.66-1.23-1.23-1.65-.6-.45-1.32-.68-2.07-.67h-6.31v10.65h4.49c1.18,0,2.29-.55,3.01-1.47h1.47l-2.31,8.27h-.77c-.21-.62-.58-1.16-1.09-1.58-.49-.4-1.09-.65-1.72-.74h-3.08v10.93h6.66Z"/>
    <path class="cls-1" d="m541.69,274.76c-.09,1.33-.05,2.67.14,4,.18,1.33.49,2.65.91,3.92.42,1.26.97,2.47,1.65,3.61.66,1.12,1.5,2.13,2.49,2.98,1.83,1.84,4.34,2.84,6.94,2.77,2.61-.16,5.12-1.08,7.22-2.63v4c-1.13.89-2.41,1.57-3.78,2-1.52.5-3.1.81-4.7.95-1.62.14-3.25.13-4.87-.04-1.46-.13-2.91-.43-4.31-.88-2.74-.89-5.18-2.53-7.04-4.73-1.72-2.07-2.98-4.48-3.68-7.08-.7-2.6-.87-5.32-.49-7.99.34-2.65,1.21-5.2,2.56-7.5,1.34-2.27,3.2-4.2,5.43-5.61,2.46-1.52,5.31-2.31,8.2-2.28.76,0,1.52.06,2.28.18l2.17.42,1.86.49,1.33.46c.22.1.46.16.7.18.07,0,.13,0,.19-.03.05-.02.08-.07.09-.12l.21-.88h1.61l2.38,8.76h-3.92c-.43-1.99-1.63-3.74-3.33-4.87-1.49-.98-3.3-1.33-5.05-.98-1.92.46-3.61,1.59-4.77,3.19-.76.97-1.32,2.08-1.67,3.26-.43,1.45-.68,2.94-.74,4.45h0Z"/>
    <path class="cls-1" d="m604.44,277.21c.13-3.36-.74-6.69-2.49-9.57-1.52-2.42-3.66-4.39-6.2-5.71-2.5-1.27-5.26-1.92-8.06-1.89-2.8-.02-5.56.63-8.06,1.89-2.54,1.32-4.68,3.29-6.2,5.71-1.75,2.88-2.61,6.2-2.49,9.57v1.89c-.13,3.36.74,6.69,2.49,9.57,1.53,2.43,3.67,4.41,6.2,5.75,2.49,1.29,5.26,1.95,8.06,1.93,2.8.02,5.57-.64,8.06-1.93,2.54-1.34,4.67-3.32,6.2-5.75,1.75-2.88,2.61-6.2,2.49-9.57v-1.89Zm-10.48,8.94c-.52,1.78-1.46,3.42-2.73,4.77-.94.98-2.22,1.56-3.57,1.61-1.36,0-2.65-.58-3.57-1.58-1.27-1.37-2.22-3.01-2.77-4.8-.82-2.59-1.2-5.31-1.12-8.03-.07-2.7.31-5.38,1.12-7.96.55-1.79,1.49-3.43,2.77-4.8.92-1,2.21-1.58,3.57-1.61,1.36.03,2.65.61,3.57,1.61,1.27,1.37,2.21,3.01,2.73,4.8.79,2.58,1.16,5.26,1.09,7.96.07,2.72-.29,5.43-1.09,8.03Z"/>
    <path class="cls-1" d="m619.74,287.16c1.17-.02,2.29.44,3.12,1.26.86.82,1.33,1.97,1.3,3.15.02,1.17-.45,2.3-1.3,3.12-.82.84-1.94,1.31-3.12,1.3-1.17.02-2.3-.45-3.12-1.3-.84-.82-1.31-1.94-1.3-3.12-.03-1.19.44-2.33,1.3-3.15.83-.83,1.95-1.28,3.12-1.26h0Z"/>
    <path class="cls-1" d="m307.52,208.42c-.01,1.48.44,2.94,1.29,4.15.83,1.22,2.04,2.12,3.44,2.58v1.72h-18.76v-1.72c1.4-.45,2.61-1.36,3.44-2.58.85-1.22,1.3-2.67,1.29-4.15v-54.7c.03-1.51-.42-2.99-1.29-4.22-.85-1.18-2.05-2.06-3.44-2.51v-1.72h26.82l13.49,49.83,13.34-49.83h26.68v1.72c-1.33.47-2.48,1.35-3.29,2.51-.87,1.23-1.32,2.71-1.29,4.22v54.7c-.01,1.48.44,2.94,1.29,4.15.79,1.19,1.95,2.09,3.29,2.58v1.72h-27.35v-1.72c1.36-.49,2.53-1.39,3.37-2.58.89-1.2,1.37-2.66,1.36-4.15v-44.1l-1,3.58-1.72,6.52-2.29,8.45-2.58,9.38-6.59,24.63h-4.58c-3.35-.44-6.49-1.86-9.02-4.08-2.55-2.21-4.4-5.12-5.3-8.38l-10.6-40.09v44.1h0Z"/>
    <path class="cls-1" d="m480.13,212.57c-1.14-1.22-1.97-2.69-2.43-4.3l-16.9-63h-22.62v1.72c1.03.64,1.83,1.6,2.29,2.72l.29,3.44-14.75,55.13c-.47,1.61-1.33,3.09-2.51,4.3-1.12,1.19-2.52,2.08-4.08,2.58v1.72h18.04v-2c-1.03-.55-1.83-1.47-2.22-2.58-.43-1.3-.46-2.7-.07-4.01l3.15-11.6h18.19l3.15,11.6c.48,1.3.46,2.73-.07,4.01-.48,1.1-1.31,2-2.36,2.58v2h27.06v-1.72c-1.6-.46-3.03-1.35-4.15-2.58Zm-39.95-22.91l7.3-27.21,7.3,27.21h-14.61Z"/>
    <path class="cls-1" d="m570.83,145.27l2.43,9.31.86,3.01h-3.01c-1.38-2.03-3.7-3.21-6.16-3.15h-11.6v53.96c-.02,1.47.43,2.9,1.29,4.09.85,1.19,2.05,2.07,3.44,2.51v1.87h-27.35v-1.87c1.33-.48,2.48-1.35,3.29-2.51.86-1.19,1.31-2.62,1.29-4.09v-53.96h-11.46c-2.48,0-4.81,1.17-6.3,3.15h-2.86l.86-3.01,2.43-9.31h52.84Z"/>
    <path class="cls-1" d="m664.11,212.57c-1.14-1.22-1.97-2.69-2.43-4.3l-16.9-63h-22.63v1.72c1.03.64,1.83,1.6,2.29,2.72l.29,3.44-14.75,55.13c-.47,1.61-1.33,3.09-2.51,4.3-1.12,1.19-2.52,2.08-4.08,2.58v1.72h18.04v-2c-1.03-.55-1.83-1.47-2.22-2.58-.43-1.3-.46-2.7-.07-4.01l3.15-11.6h18.19l3.15,11.6c.48,1.3.46,2.73-.07,4.01-.48,1.1-1.31,2-2.36,2.58v2h27.06v-1.72c-1.6-.46-3.03-1.35-4.15-2.58Zm-39.95-22.91l7.3-27.21,7.3,27.21h-14.61Z"/>
    <path class="cls-1" d="m777.58,213.86c-.6-.61-1.13-1.28-1.58-2l-5.16-9.59-11.03-20.05c3.06-1.74,5.76-4.05,7.95-6.8,2.23-2.93,3.6-6.43,3.94-10.09.39-2.53.24-5.12-.43-7.59-.66-2.36-1.88-4.53-3.58-6.3-1.97-1.97-4.37-3.47-7.02-4.37-3.46-1.18-7.09-1.79-10.74-1.79h-37.09v1.72c1.38.53,2.57,1.45,3.44,2.65.86,1.19,1.31,2.62,1.29,4.08v54.7c.02,1.46-.43,2.89-1.29,4.08-.85,1.18-2.05,2.06-3.44,2.51v1.86h27.49v-1.86c-1.35-.48-2.52-1.36-3.37-2.51-.9-1.17-1.38-2.61-1.36-4.08v-19.19l4.15-.64,4.3-.79,10.31,20.33c1.31,2.51,3.14,4.71,5.37,6.44,2.38,1.62,5.22,2.43,8.09,2.29h11.74v-1.86c-.76-.19-1.46-.59-2-1.15Zm-21.55-47.61c-.45,2.39-1.48,4.62-3.01,6.52-1.8,2.18-4.08,3.92-6.66,5.08-3.38,1.5-7.04,2.25-10.74,2.22v-27.78h13.32c1.75.06,3.39.87,4.51,2.22,1.24,1.49,2.1,3.26,2.51,5.15.48,2.17.5,4.41.07,6.59Z"/>
    <path class="cls-1" d="m849.81,145.27v1.72c-1.35.48-2.5,1.39-3.29,2.58-.85,1.22-1.3,2.67-1.29,4.15v54.7c-.01,1.48.44,2.94,1.29,4.15.79,1.19,1.95,2.09,3.29,2.58v1.72h-27.35v-1.72c1.4-.45,2.61-1.36,3.44-2.58.85-1.22,1.3-2.67,1.29-4.15v-54.7c.01-1.48-.44-2.94-1.29-4.15-.83-1.22-2.04-2.12-3.44-2.58v-1.72h27.35Z"/>
  </g>
</svg>